<svg preserveAspectRatio="none" width="100%" height="100%" overflow="visible" style="display: block;" viewBox="0 0 37.4171 41.2709" fill="none" xmlns="http://www.w3.org/2000/svg">
<g id="Group 357">
<path id="Vector 61 (Stroke)" d="M30.5556 2.382C31.2943 0.867372 33.0431 0.137299 34.6394 0.677197C36.455 1.29129 37.3861 3.30073 36.6808 5.08284L36.5507 5.41159L35.5484 5.01501L35.6785 4.68611C36.1567 3.47755 35.5254 2.1148 34.2941 1.69834C33.2115 1.33216 32.0253 1.8273 31.5244 2.85453L27.1263 11.8735L26.1575 11.401L30.5556 2.382Z" fill="none" stroke="#5A759D"/>
<path id="Vector 60" d="M19.866 18.1052L21.4133 8.55727L32.6478 13.4314L29.3515 18.1052H19.866Z" fill="none" stroke="#5A759D"/>
<path id="Vector 59" d="M3.53463 16.6122L4.36789 18.7561C4.83101 19.9477 5.9526 20.7546 7.22958 20.8149L13.4124 21.107C15.7353 21.2167 17.4113 18.9122 16.5911 16.7361L14.7117 11.7497C14.0366 9.95843 11.9619 9.14238 10.2474 9.99368L5.11073 12.5441C3.61206 13.2882 2.92848 15.0527 3.53463 16.6122Z" fill="none" stroke="#5A759D"/>
<path id="Vector 58" d="M2.61788 40.4932V25.0351H31.7235V40.4932H16.9203H2.61788Z" fill="none" stroke="#5A759D"/>
<path id="Rectangle 138" d="M33.1876 18.4892V24.035H1.00014V18.4892H33.1876Z" fill="none" stroke="#5A759D" stroke-width="2"/>
<path id="Vector 62 (Stroke)" d="M11.3567 12.5201C11.6345 12.4133 11.9464 12.5518 12.0533 12.8296C12.1601 13.1075 12.0216 13.4194 11.7438 13.5262L7.73982 15.0662C7.462 15.1731 7.1501 15.0345 7.04322 14.7567C6.93637 14.4789 7.07492 14.167 7.35272 14.0601L11.3567 12.5201Z" fill="none" stroke="#5A759D" stroke-linecap="round"/>
</g>
</svg>
