<svg preserveAspectRatio="none" width="100%" height="100%" overflow="visible" style="display: block;" viewBox="0 0 29.0518 31.4635" fill="none" xmlns="http://www.w3.org/2000/svg">
<g id="Group">
<path id="Vector" d="M10.5143 4.96625L11.4889 2.45052C11.6532 2.02457 11.9424 1.6582 12.3185 1.39938C12.6946 1.14055 13.1401 1.00135 13.5966 1H15.4551C15.9117 1.00135 16.3572 1.14055 16.7333 1.39938C17.1094 1.6582 17.3985 2.02457 17.5629 2.45052L18.5375 4.96625L21.8464 6.87004L24.5208 6.46209C24.9661 6.40164 25.4194 6.47495 25.8229 6.67269C26.2265 6.87043 26.5621 7.18368 26.7872 7.57264L27.6938 9.15913C27.9261 9.55428 28.0331 10.0106 28.0008 10.4678C27.9684 10.925 27.7981 11.3617 27.5125 11.7202L25.858 13.828V17.6356L27.5578 19.7433C27.8435 20.1018 28.0137 20.5385 28.0461 20.9957C28.0785 21.4529 27.9714 21.9092 27.7391 22.3044L26.8326 23.8909C26.6075 24.2798 26.2718 24.5931 25.8682 24.7908C25.4647 24.9886 25.0115 25.0619 24.5661 25.0014L21.8918 24.5935L18.5828 26.4973L17.6082 29.013C17.4439 29.439 17.1547 29.8053 16.7786 30.0641C16.4025 30.323 15.957 30.4622 15.5004 30.4635H13.5966C13.1401 30.4622 12.6946 30.323 12.3185 30.0641C11.9424 29.8053 11.6532 29.439 11.4889 29.013L10.5143 26.4973L7.20533 24.5935L4.53095 25.0014C4.08563 25.0619 3.6324 24.9886 3.22885 24.7908C2.82529 24.5931 2.48963 24.2798 2.26452 23.8909L1.35795 22.3044C1.12565 21.9092 1.01862 21.4529 1.05099 20.9957C1.08336 20.5385 1.25361 20.1018 1.53927 19.7433L3.19376 17.6356V13.828L1.49394 11.7202C1.20828 11.3617 1.03803 10.925 1.00566 10.4678C0.97329 10.0106 1.08032 9.55428 1.31263 9.15913L2.2192 7.57264C2.4443 7.18368 2.77996 6.87043 3.18352 6.67269C3.58707 6.47495 4.04031 6.40164 4.48562 6.46209L7.16 6.87004L10.5143 4.96625Z" stroke="#5A759D" stroke-width="2" stroke-linecap="round" stroke-linejoin="round"/>
<path id="Vector_2" d="M14.5255 22.531C18.2806 22.531 21.3248 19.4869 21.3248 15.7318C21.3248 11.9766 18.2806 8.93249 14.5255 8.93249C10.7704 8.93249 7.72623 11.9766 7.72623 15.7318C7.72623 19.4869 10.7704 22.531 14.5255 22.531Z" stroke="#5A759D" stroke-width="2" stroke-linecap="round" stroke-linejoin="round"/>
</g>
</svg>
