<svg preserveAspectRatio="none" width="100%" height="100%" overflow="visible" style="display: block;" viewBox="0 0 29.0808 27" fill="none" xmlns="http://www.w3.org/2000/svg">
<g id="Group">
<path id="Vector" d="M10.3743 10.3747C12.963 10.3747 15.0616 8.27611 15.0616 5.68735C15.0616 3.0986 12.963 1 10.3743 1C7.78554 1 5.68694 3.0986 5.68694 5.68735C5.68694 8.27611 7.78554 10.3747 10.3743 10.3747Z" stroke="#5A759D" stroke-width="2" stroke-linecap="round" stroke-linejoin="round"/>
<path id="Vector_2" d="M19.7494 26H1V23.9167C1 21.4304 1.98769 19.0459 3.74579 17.2878C5.50389 15.5297 7.88838 14.542 10.3747 14.542C12.861 14.542 15.2455 15.5297 17.0036 17.2878C18.7617 19.0459 19.7494 21.4304 19.7494 23.9167V26Z" stroke="#5A759D" stroke-width="2" stroke-linecap="round" stroke-linejoin="round"/>
<path id="Vector_3" d="M18.7074 1C19.9506 1 21.1428 1.49384 22.0218 2.37289C22.9009 3.25194 23.3947 4.44419 23.3947 5.68735C23.3947 6.93052 22.9009 8.12276 22.0218 9.00181C21.1428 9.88086 19.9506 10.3747 18.7074 10.3747" stroke="#5A759D" stroke-width="2" stroke-linecap="round" stroke-linejoin="round"/>
<path id="Vector_4" d="M22.0394 14.9376C23.814 15.6127 25.3417 16.8107 26.4205 18.3731C27.4994 19.9355 28.0783 21.7886 28.0808 23.6873V25.9997H24.9559" stroke="#5A759D" stroke-width="2" stroke-linecap="round" stroke-linejoin="round"/>
</g>
</svg>
