<svg preserveAspectRatio="none" width="100%" height="100%" overflow="visible" style="display: block;" viewBox="0 0 30.756 27.7705" fill="none" xmlns="http://www.w3.org/2000/svg">
<g id="2A2SKX">
<path id="Vector" d="M20.431 24.8267C19.7283 24.593 19.3945 24.9368 19.0173 25.4943C17.8724 27.205 15.3756 27.3418 13.9369 25.8281C13.7249 25.6044 13.573 25.5827 13.2943 25.6995C12.4215 26.0667 11.476 26.2282 10.5308 26.1717C9.58562 26.1151 8.66611 25.8419 7.84335 25.3732C7.02059 24.9046 6.31662 24.253 5.78585 23.4689C5.25509 22.6848 4.91176 21.7891 4.78239 20.8511C4.72731 20.4438 4.65054 20.0299 4.73899 19.6144C4.79908 19.3306 4.58712 19.3256 4.40519 19.2806C3.83603 19.1738 3.30531 18.9182 2.86702 18.5397C2.42874 18.1612 2.09854 17.6734 1.91003 17.1259C1.65063 16.4523 1.63703 15.7089 1.87165 15.0263C1.95843 14.7642 1.88667 14.6491 1.68806 14.4939C0.342838 13.4457 -0.254666 12.0705 0.100832 10.3914C0.468013 8.66402 1.58291 7.6042 3.30031 7.1953C3.6205 7.09412 3.95943 7.06673 4.2917 7.11518C4.66222 7.19696 4.73065 7.01504 4.74901 6.72297C4.78707 6.12437 4.93769 5.53832 5.19296 4.99555C6.45807 2.29009 9.43057 1.07673 12.2312 2.1549C12.3283 2.20872 12.4422 2.224 12.5501 2.19772C12.658 2.17143 12.7521 2.10551 12.8136 2.01304C15.3355 -0.699094 19.6566 0.203837 20.8916 3.7004C20.9801 3.95242 21.0902 4.00082 21.3439 3.9591C22.1654 3.8137 23.0079 3.83692 23.8202 4.02733C24.6325 4.21775 25.3975 4.5714 26.0688 5.06676C26.7401 5.56212 27.3037 6.18884 27.7251 6.90882C28.1466 7.6288 28.4173 8.42699 28.5206 9.25485C28.8127 11.6799 27.9231 13.6527 25.9437 15.1047C25.7084 15.2716 25.6683 15.3818 25.8168 15.6471C27.9215 19.379 25.5264 24.1724 21.2822 24.7432C21.0001 24.7856 20.7159 24.8135 20.431 24.8267ZM6.22274 19.9131C6.19494 20.7365 6.38922 21.5523 6.78519 22.2747C8.14376 24.6598 11.0378 25.4108 13.4111 23.9972C13.9736 23.6634 14.3708 23.7635 14.6662 24.3193C15.0618 25.0637 15.7978 25.4876 16.5522 25.3908C17.3667 25.294 17.9675 24.7349 18.1828 23.877C18.3497 23.2328 18.6418 23.0425 19.2927 23.1994C19.9884 23.369 20.7138 23.3753 21.4123 23.2177C22.1946 23.0461 22.9201 22.6776 23.52 22.1469C24.1199 21.6163 24.5743 20.9413 24.8401 20.1858C25.1059 19.4303 25.1743 18.6195 25.0388 17.8301C24.9034 17.0408 24.5685 16.2991 24.0661 15.6755C23.9316 15.5319 23.8437 15.3509 23.814 15.1564C23.7757 14.6958 24.051 14.4788 24.4199 14.2969C25.5041 13.7813 26.3501 12.8707 26.7845 11.7515C27.219 10.6324 27.2091 9.38942 26.7567 8.27736C26.3044 7.1653 25.4439 6.26831 24.3516 5.77017C23.2593 5.27203 22.0178 5.21046 20.8816 5.59806C20.5678 5.70488 20.2657 5.795 19.9637 5.56969C19.705 5.37775 19.6616 5.09235 19.6215 4.80695C19.5421 4.12151 19.2477 3.4788 18.7806 2.97091C18.3135 2.46303 17.6976 2.11604 17.0212 1.97966C16.3635 1.84564 15.6805 1.9152 15.0633 2.17908C14.4461 2.44296 13.9239 2.88863 13.5664 3.45673C13.1591 4.09095 12.8771 4.1527 12.2312 3.79053C10.7791 2.98774 9.32375 3.01945 7.9585 3.94574C6.59326 4.87204 6.05584 6.27067 6.26613 7.90963C6.30953 8.24343 6.29618 8.53384 6.0258 8.75582C5.75542 8.97779 5.44999 8.95443 5.1479 8.81423C4.81995 8.66921 4.46502 8.59527 4.10644 8.59726C3.50087 8.59363 2.91292 8.80093 2.44354 9.18358C1.97417 9.56623 1.65265 10.1003 1.53419 10.6942C1.41573 11.2881 1.50771 11.9047 1.79436 12.4382C2.081 12.9716 2.54442 13.3886 3.10504 13.6176C3.80936 13.9197 3.93954 14.3219 3.52062 14.9662C3.08835 15.6421 3.05664 16.3381 3.49392 17.0124C3.9312 17.6867 4.59212 17.9654 5.39992 17.8469C6.08087 17.7401 6.47977 18.1239 6.35125 18.7982C6.26749 19.164 6.2244 19.5379 6.22274 19.9131Z" fill="white"/>
<path id="Vector_2" d="M3.48027 1.64064C3.48496 1.83365 3.45092 2.02565 3.38017 2.2053C3.30943 2.38494 3.20341 2.54859 3.06837 2.68659C2.93333 2.82458 2.77201 2.93412 2.59394 3.00874C2.41587 3.08336 2.22465 3.12155 2.03158 3.12104C1.83575 3.12306 1.64149 3.0859 1.46023 3.01174C1.27897 2.93757 1.11438 2.82791 0.976129 2.68919C0.83788 2.55048 0.728769 2.38551 0.655217 2.20401C0.581664 2.0225 0.545154 1.82812 0.547835 1.63229C0.546917 1.43914 0.584589 1.24775 0.65864 1.06936C0.732691 0.890964 0.841629 0.729157 0.979061 0.593435C1.11649 0.457713 1.27965 0.35081 1.45896 0.278998C1.63827 0.207187 1.83011 0.171914 2.02323 0.17525C2.21629 0.171586 2.40809 0.207049 2.58707 0.279502C2.76605 0.351954 2.92851 0.459896 3.06466 0.596821C3.2008 0.733746 3.30782 0.896819 3.37925 1.07621C3.45067 1.25561 3.48504 1.4476 3.48027 1.64064Z" fill="white"/>
<path id="Vector_3" d="M29.2701 18.3909C28.881 18.3896 28.5084 18.2337 28.2342 17.9577C27.96 17.6816 27.8067 17.3079 27.808 16.9188C27.8093 16.5297 27.9652 16.1571 28.2413 15.8829C28.5173 15.6088 28.891 15.4555 29.2801 15.4568C29.4764 15.4558 29.6708 15.4943 29.852 15.5697C30.0332 15.6452 30.1974 15.7563 30.335 15.8963C30.4725 16.0363 30.5806 16.2025 30.6528 16.385C30.725 16.5675 30.7599 16.7627 30.7555 16.9589C30.7558 17.1516 30.7173 17.3424 30.6421 17.5198C30.5669 17.6972 30.4566 17.8576 30.3179 17.9914C30.1791 18.1251 30.0148 18.2294 29.8348 18.2981C29.6547 18.3668 29.4626 18.3983 29.2701 18.3909Z" fill="white"/>
<path id="Vector_4" d="M1.35604 21.4851C1.35335 21.1772 1.47228 20.8807 1.68699 20.6601C1.9017 20.4394 2.19482 20.3124 2.50264 20.3067C2.8125 20.3081 3.10913 20.4324 3.32729 20.6525C3.54545 20.8725 3.66727 21.1702 3.66594 21.48C3.66461 21.7899 3.54025 22.0865 3.32021 22.3047C3.10017 22.5229 2.80248 22.6447 2.49263 22.6433C2.19003 22.6351 1.90243 22.5098 1.69041 22.2937C1.4784 22.0777 1.35852 21.7878 1.35604 21.4851Z" fill="white"/>
<path id="Vector_5" d="M29.9225 1.17331C29.9225 1.32596 29.8922 1.47708 29.8333 1.6179C29.7744 1.75872 29.688 1.88642 29.5793 1.99358C29.4706 2.10074 29.3417 2.18522 29.2 2.2421C29.0584 2.29898 28.9068 2.32714 28.7542 2.32492C28.4662 2.29361 28.2001 2.15639 28.0075 1.93991C27.815 1.72342 27.7097 1.44311 27.7122 1.1534C27.7147 0.863683 27.8248 0.58523 28.021 0.372094C28.2173 0.158958 28.4857 0.0263452 28.7742 0C28.927 0.00064003 29.078 0.0316096 29.2187 0.0911119C29.3594 0.150614 29.4868 0.237464 29.5936 0.346619C29.7005 0.455774 29.7845 0.585061 29.841 0.726975C29.8975 0.868888 29.9252 1.0206 29.9225 1.17331Z" fill="white"/>
<path id="Vector_6" d="M22.3287 27.7704C22.1773 27.7689 22.0276 27.7375 21.8883 27.6782C21.7489 27.6188 21.6226 27.5325 21.5166 27.4244C21.4106 27.3162 21.327 27.1882 21.2704 27.0477C21.2139 26.9072 21.1856 26.7569 21.1871 26.6054C21.1886 26.454 21.22 26.3043 21.2794 26.165C21.3387 26.0257 21.425 25.8994 21.5332 25.7934C21.6413 25.6874 21.7693 25.6037 21.9098 25.5472C22.0504 25.4906 22.2006 25.4623 22.3521 25.4638C22.6579 25.4669 22.9501 25.5914 23.1641 25.8099C23.3782 26.0284 23.4968 26.3229 23.4937 26.6288C23.4906 26.9347 23.3661 27.2268 23.1476 27.4409C22.9292 27.655 22.6346 27.7735 22.3287 27.7704Z" fill="white"/>
<path id="Vector_7" d="M28.4404 26.1485C28.4321 26.3161 28.3624 26.4748 28.2444 26.5943C28.1265 26.7138 27.9687 26.7856 27.8012 26.796C27.6273 26.7939 27.4611 26.724 27.338 26.6012C27.2149 26.4783 27.1445 26.3123 27.1419 26.1385C27.1467 25.9646 27.2192 25.7995 27.3438 25.6782C27.4685 25.557 27.6356 25.4891 27.8095 25.4892C27.9766 25.5044 28.1325 25.5795 28.2485 25.7006C28.3645 25.8218 28.4326 25.9809 28.4404 26.1485Z" fill="white"/>
<path id="Vector_8" d="M23.2986 0.533917C23.3846 0.528089 23.4709 0.539772 23.5523 0.568262C23.6337 0.596752 23.7085 0.641456 23.7721 0.69967C23.8357 0.757883 23.8869 0.828397 23.9224 0.906944C23.958 0.985492 23.9773 1.07044 23.9791 1.15665C23.9809 1.24286 23.9652 1.32855 23.933 1.40852C23.9007 1.48849 23.8526 1.56108 23.7914 1.62191C23.7303 1.68274 23.6575 1.73054 23.5774 1.76241C23.4973 1.79429 23.4115 1.80958 23.3253 1.80737C23.2393 1.8132 23.1529 1.80151 23.0716 1.77302C22.9902 1.74453 22.9154 1.69983 22.8518 1.64161C22.7882 1.5834 22.737 1.51289 22.7014 1.43434C22.6659 1.35579 22.6466 1.27084 22.6448 1.18463C22.643 1.09842 22.6587 1.01274 22.6909 0.932769C22.7232 0.852799 22.7713 0.780204 22.8324 0.719374C22.8936 0.658545 22.9664 0.610747 23.0465 0.57887C23.1266 0.546993 23.2124 0.5317 23.2986 0.533917Z" fill="white"/>
<path id="Vector_9" d="M1.04881 25.0833C0.880157 25.0859 0.717361 25.0215 0.59623 24.9041C0.4751 24.7867 0.405557 24.626 0.402902 24.4574C0.400246 24.2887 0.464694 24.1259 0.582068 24.0048C0.699443 23.8837 0.860129 23.8141 1.02878 23.8115C1.11456 23.8085 1.20006 23.8231 1.27996 23.8544C1.35987 23.8858 1.4325 23.9332 1.49335 23.9938C1.5542 24.0543 1.60199 24.1267 1.63376 24.2064C1.66552 24.2862 1.68058 24.3716 1.67802 24.4574C1.6801 24.5404 1.66522 24.623 1.6343 24.7001C1.60337 24.7772 1.55704 24.8472 1.49815 24.9058C1.43925 24.9644 1.36903 25.0103 1.29177 25.0408C1.21451 25.0713 1.13184 25.0858 1.04881 25.0833Z" fill="white"/>
<path id="Vector_10" d="M5.06643 25.8813C5.07115 25.9672 5.05788 26.0531 5.02747 26.1336C4.99707 26.214 4.95019 26.2872 4.88986 26.3485C4.82953 26.4097 4.75706 26.4577 4.6771 26.4894C4.59715 26.521 4.51146 26.5356 4.42553 26.5323C4.25821 26.5323 4.09775 26.4658 3.97943 26.3475C3.86112 26.2292 3.79465 26.0687 3.79465 25.9014C3.79199 25.7327 3.85644 25.5699 3.97382 25.4488C4.09119 25.3277 4.25188 25.2581 4.42053 25.2555C4.58918 25.2528 4.75197 25.3173 4.8731 25.4346C4.99423 25.552 5.06378 25.7127 5.06643 25.8813Z" fill="white"/>
<path id="Vector_11" d="M18.5333 7.77945C18.5265 8.06752 18.4349 8.34717 18.2701 8.58352C18.1052 8.81987 17.8745 9.00245 17.6065 9.10848C17.3386 9.21451 17.0454 9.23928 16.7635 9.17972C16.4815 9.12016 16.2234 8.97889 16.0212 8.77355C15.8191 8.56821 15.6819 8.30789 15.6268 8.02507C15.5716 7.74224 15.601 7.44945 15.7112 7.18321C15.8214 6.91698 16.0076 6.68909 16.2465 6.528C16.4854 6.3669 16.7665 6.27973 17.0546 6.27735C17.2508 6.2771 17.4452 6.31595 17.6262 6.39165C17.8073 6.46734 17.9714 6.57835 18.1091 6.71819C18.2468 6.85803 18.3552 7.02391 18.428 7.20612C18.5009 7.38834 18.5367 7.58324 18.5333 7.77945Z" fill="white"/>
<path id="Vector_12" d="M11.1348 21.9123C10.8452 21.9053 10.564 21.8127 10.3269 21.6461C10.0898 21.4796 9.90729 21.2465 9.80245 20.9764C9.69762 20.7062 9.67513 20.4111 9.73783 20.1282C9.80053 19.8453 9.94561 19.5873 10.1548 19.3867C10.3639 19.1862 10.6278 19.052 10.9131 19.0013C11.1984 18.9505 11.4923 18.9853 11.7578 19.1014C12.0233 19.2175 12.2485 19.4096 12.405 19.6535C12.5614 19.8974 12.6421 20.1822 12.637 20.4719C12.6286 20.8621 12.4657 21.2329 12.1841 21.503C11.9024 21.7731 11.525 21.9203 11.1348 21.9123Z" fill="white"/>
<path id="Vector_13" d="M16.4287 14.7973C16.1264 14.7991 15.8356 14.6816 15.6194 14.4704C15.4032 14.2592 15.279 13.9712 15.2737 13.669C15.2722 13.3592 15.3938 13.0614 15.6118 12.8412C15.8298 12.621 16.1263 12.4964 16.4362 12.4949C16.746 12.4933 17.0438 12.6149 17.264 12.8329C17.4842 13.0509 17.6088 13.3475 17.6103 13.6573C17.6099 13.8105 17.5788 13.962 17.5188 14.1028C17.4587 14.2437 17.371 14.3711 17.2608 14.4774C17.1506 14.5838 17.0201 14.6669 16.8772 14.7218C16.7342 14.7767 16.5817 14.8024 16.4287 14.7973Z" fill="white"/>
<path id="Vector_14" d="M10.14 11.2075C9.83759 11.2062 9.54789 11.0858 9.3336 10.8724C9.11931 10.6591 8.99768 10.3699 8.99505 10.0675C8.99637 9.75768 9.12074 9.46104 9.34077 9.24288C9.56081 9.02472 9.8585 8.90291 10.1684 8.90423C10.4782 8.90556 10.7748 9.02992 10.993 9.24996C11.2112 9.47 11.333 9.76769 11.3317 10.0775C11.33 10.2307 11.2976 10.382 11.2363 10.5224C11.1751 10.6628 11.0862 10.7894 10.9751 10.8948C10.8639 11.0002 10.7327 11.0822 10.5893 11.1359C10.4458 11.1896 10.293 11.214 10.14 11.2075Z" fill="white"/>
<path id="Vector_15" d="M22.1616 12.0367C22.1593 11.8873 22.1869 11.7389 22.2427 11.6003C22.2984 11.4617 22.3812 11.3355 22.4862 11.2293C22.5913 11.123 22.7164 11.0387 22.8544 10.9813C22.9924 10.924 23.1404 10.8946 23.2898 10.8951C23.4419 10.89 23.5935 10.9154 23.7356 10.9699C23.8778 11.0244 24.0075 11.1068 24.1172 11.2123C24.2269 11.3178 24.3143 11.4442 24.3743 11.5841C24.4343 11.724 24.4656 11.8745 24.4664 12.0267C24.4665 12.3337 24.3457 12.6283 24.1302 12.847C23.9147 13.0656 23.6218 13.1906 23.3148 13.195C23.1629 13.1952 23.0124 13.1654 22.8721 13.1072C22.7317 13.049 22.6043 12.9636 22.4971 12.8559C22.3899 12.7483 22.305 12.6204 22.2474 12.4798C22.1899 12.3392 22.1607 12.1886 22.1616 12.0367Z" fill="white"/>
<path id="Vector_16" d="M6.55661 14.4719C6.33529 14.4719 6.12303 14.384 5.96653 14.2275C5.81003 14.071 5.72211 13.8587 5.72211 13.6374C5.72823 13.4212 5.81922 13.2161 5.97539 13.0665C6.13157 12.9169 6.34036 12.8348 6.55661 12.8379C6.77148 12.8422 6.97681 12.9275 7.13153 13.0766C7.28625 13.2258 7.37896 13.4278 7.39112 13.6424C7.38979 13.8628 7.30129 14.0738 7.14493 14.2292C6.98858 14.3847 6.77707 14.4719 6.55661 14.4719Z" fill="white"/>
<path id="Vector_17" d="M12.1193 16.6217C11.9516 16.6107 11.7937 16.5383 11.6761 16.4181C11.5584 16.298 11.4892 16.1387 11.4818 15.9707C11.4818 15.7977 11.5505 15.6317 11.6729 15.5093C11.7953 15.3869 11.9613 15.3182 12.1343 15.3182C12.3074 15.3182 12.4734 15.3869 12.5958 15.5093C12.7182 15.6317 12.7869 15.7977 12.7869 15.9707C12.777 16.143 12.703 16.3053 12.5795 16.4258C12.4559 16.5462 12.2918 16.6161 12.1193 16.6217Z" fill="white"/>
<path id="Vector_18" d="M16.9312 21.5634C16.7626 21.5656 16.6 21.5007 16.4791 21.383C16.3583 21.2654 16.2892 21.1045 16.287 20.9358C16.2848 20.7672 16.3496 20.6046 16.4673 20.4838C16.585 20.3629 16.7459 20.2938 16.9145 20.2916C17.0005 20.2888 17.0861 20.3037 17.166 20.3354C17.246 20.367 17.3185 20.4148 17.3793 20.4757C17.44 20.5365 17.4875 20.6092 17.519 20.6893C17.5504 20.7693 17.5651 20.8549 17.5621 20.9409C17.5647 21.024 17.5501 21.1068 17.5192 21.1841C17.4883 21.2614 17.4418 21.3314 17.3826 21.3899C17.3234 21.4483 17.2527 21.4939 17.175 21.5238C17.0974 21.5536 17.0143 21.5671 16.9312 21.5634Z" fill="white"/>
<path id="Vector_19" d="M21.1738 18.0418C21.0903 18.0407 21.0078 18.0232 20.9311 17.9902C20.8543 17.9572 20.7848 17.9095 20.7266 17.8496C20.6683 17.7898 20.6224 17.7191 20.5914 17.6415C20.5605 17.564 20.5451 17.4811 20.5462 17.3975C20.5473 17.314 20.5648 17.2316 20.5978 17.1548C20.6308 17.0781 20.6785 17.0086 20.7384 16.9503C20.7982 16.8921 20.8689 16.8462 20.9465 16.8152C21.024 16.7843 21.1069 16.7689 21.1904 16.77C21.3591 16.7722 21.52 16.8413 21.6376 16.9622C21.7553 17.083 21.8202 17.2456 21.818 17.4142C21.8158 17.5829 21.7467 17.7437 21.6258 17.8614C21.505 17.9791 21.3424 18.044 21.1738 18.0418Z" fill="white"/>
<path id="Vector_20" d="M12.5651 5.33563C12.7377 5.33297 12.9043 5.399 13.0283 5.51919C13.1522 5.63938 13.2234 5.80389 13.226 5.97652C13.2287 6.14916 13.1626 6.31577 13.0424 6.43972C12.9222 6.56367 12.7577 6.63479 12.5851 6.63745C12.4176 6.64013 12.2559 6.57627 12.1355 6.45987C12.015 6.34348 11.9456 6.18406 11.9425 6.01658C11.9378 5.93079 11.9503 5.84492 11.9792 5.764C12.008 5.68308 12.0528 5.60874 12.1108 5.54532C12.1687 5.48191 12.2388 5.4307 12.3168 5.39469C12.3948 5.35869 12.4792 5.33861 12.5651 5.33563Z" fill="white"/>
</g>
</svg>
