<svg preserveAspectRatio="none" width="100%" height="100%" overflow="visible" style="display: block;" viewBox="0 0 29.3709 30.9189" fill="none" xmlns="http://www.w3.org/2000/svg">
<g id="Group">
<g id="Group_2">
<path id="Vector" d="M28.8709 25.9394H12.2318" stroke="#41D541" stroke-linecap="round" stroke-linejoin="round"/>
<path id="Vector_2" d="M16.7114 21.4594L12.2316 25.9392L16.7114 30.4189" stroke="#41D541" stroke-linecap="round" stroke-linejoin="round"/>
</g>
<path id="Vector_3" d="M11.0748 11.0749C13.995 11.0749 16.3623 8.70766 16.3623 5.78747C16.3623 2.86728 13.995 0.5 11.0748 0.5C8.15463 0.5 5.78735 2.86728 5.78735 5.78747C5.78735 8.70766 8.15463 11.0749 11.0748 11.0749Z" stroke="#000001" stroke-linecap="round" stroke-linejoin="round"/>
<path id="Vector_4" d="M6.37497 28.6999H0.5V25.1749C0.501838 23.0847 1.12304 21.042 2.28516 19.3046C3.44727 17.5673 5.09817 16.2133 7.02934 15.4137C8.96051 14.6141 11.0853 14.4047 13.1354 14.8119C15.1856 15.2192 17.069 16.2249 18.5479 17.7019" stroke="#000001" stroke-linecap="round" stroke-linejoin="round"/>
</g>
</svg>
