<svg preserveAspectRatio="none" width="100%" height="100%" overflow="visible" style="display: block;" viewBox="0 0 24.3671 25.4345" fill="none" xmlns="http://www.w3.org/2000/svg">
<g id="Group 71">
<path id="Vector" d="M24.3669 7.86845C24.3669 9.35729 24.2657 11.0357 23.6505 12.6383C23.1961 13.8218 22.4976 14.8077 21.3229 15.3665C20.5569 15.7318 20.3863 15.616 20.3823 14.7838C20.3823 14.5662 20.3942 14.3467 20.3823 14.1312C20.3347 13.5324 20.3942 13.0115 20.9121 12.5884C21.2475 12.313 21.4142 11.874 21.5233 11.4489C22.03 9.56719 22.1154 7.59594 21.7733 5.67709C21.4241 3.77513 19.7473 2.48387 17.8264 2.44395C15.8699 2.41002 14.2546 3.59551 13.7704 5.4376C13.5065 6.46143 13.572 7.52517 13.4807 8.56896C13.4152 9.29143 13.2823 9.97797 12.8854 10.5947L6.69417 20.1743C6.57511 20.358 6.44811 20.5735 6.208 20.5735C5.49958 20.5935 4.78918 20.6014 4.08076 20.5895C3.81883 20.5895 3.7335 20.4278 3.88233 20.1903C3.94384 20.0885 4.01131 19.9907 4.08076 19.8909C6.25033 16.5753 8.4199 13.2623 10.5895 9.95203C10.8732 9.5229 11.0314 9.02223 11.0459 8.50709C11.1094 7.34356 11.0756 6.16406 11.3673 5.02248C12.1909 1.81528 14.832 -0.166511 18.2193 0.0111121C21.1959 0.172769 23.5771 2.26832 24.2538 5.41365C24.4125 6.16207 24.3471 6.91447 24.3669 7.86845Z" fill="var(--fill-0, white)"/>
<path id="Vector_2" d="M19.7208 15.0681C19.7208 15.8425 19.697 16.6148 19.7208 17.3872C19.7407 17.934 19.5224 18.1436 18.9906 18.1097C17.9111 18.0378 16.9149 18.2593 16.0755 18.9978C14.5992 20.297 14.3234 22.6301 15.4445 24.2965C15.5497 24.4522 15.7819 24.5879 15.6688 24.8055C15.5556 25.023 15.3136 24.9252 15.127 24.9272C14.4563 24.9372 13.7876 24.9392 13.1169 24.9272C11.8092 24.9092 10.8884 24.1289 10.6483 22.8177C10.432 21.6202 10.6483 20.4467 10.7932 19.2732C11.0174 17.5149 11.4579 15.8105 12.3549 14.2638C12.8444 13.3749 13.5267 12.6083 14.3512 12.0209C15.1757 11.4336 16.1211 11.0405 17.1173 10.871C17.3697 10.8291 17.6257 10.8131 17.8813 10.8231C19.0283 10.8491 19.6672 11.4757 19.7089 12.6333C19.7347 13.4436 19.7089 14.2578 19.7089 15.0681H19.7208Z" fill="var(--fill-0, white)"/>
<path id="Vector_3" d="M18.7784 25.4342C17.9004 25.4265 17.06 25.075 16.4357 24.4541C15.8113 23.8333 15.4523 22.9921 15.4347 22.1092C15.4051 21.6463 15.4703 21.1822 15.6261 20.7456C15.7819 20.309 16.025 19.9091 16.3405 19.5707C16.656 19.2324 17.0372 18.9627 17.4604 18.7783C17.8836 18.5939 18.34 18.4988 18.8012 18.4988C19.2624 18.4988 19.7188 18.5939 20.142 18.7783C20.5652 18.9627 20.9464 19.2324 21.2619 19.5707C21.5774 19.9091 21.8205 20.309 21.9763 20.7456C22.1321 21.1822 22.1973 21.6463 22.1677 22.1092C22.1628 22.5515 22.0711 22.9885 21.898 23.3951C21.7249 23.8018 21.4738 24.1701 21.1589 24.4789C20.8441 24.7878 20.4718 25.0311 20.0633 25.1951C19.6548 25.359 19.2181 25.4402 18.7784 25.4342ZM18.8181 20.8639C18.6553 20.8542 18.4924 20.8794 18.34 20.9379C18.1877 20.9963 18.0494 21.0866 17.9344 21.2029C17.8194 21.3191 17.7303 21.4586 17.6729 21.6121C17.6155 21.7656 17.5912 21.9296 17.6017 22.0932C17.5945 22.2569 17.6215 22.4203 17.6808 22.5729C17.7402 22.7255 17.8306 22.8639 17.9462 22.9793C18.0619 23.0947 18.2002 23.1845 18.3524 23.2429C18.5046 23.3014 18.6673 23.3271 18.83 23.3186C18.9873 23.3187 19.1431 23.2873 19.2884 23.2264C19.4336 23.1654 19.5654 23.0762 19.6761 22.9637C19.7868 22.8512 19.8743 22.7178 19.9334 22.5711C19.9925 22.4245 20.0222 22.2675 20.0206 22.1092C20.0306 21.9461 20.0067 21.7827 19.9503 21.6294C19.8939 21.4761 19.8063 21.3364 19.6931 21.2192C19.5798 21.1019 19.4435 21.0098 19.2929 20.9486C19.1422 20.8874 18.9805 20.8585 18.8181 20.8639Z" fill="var(--fill-0, white)"/>
<path id="Vector_4" d="M3.86415 25.3981C3.01683 25.3981 2.16752 25.3981 1.3202 25.3981C0.472874 25.3981 0.0879079 24.9989 0.0204396 24.1747C-0.0443674 23.62 0.0456435 23.0582 0.280391 22.5521C0.677263 21.7538 1.30234 21.3048 2.19728 21.2948C3.51689 21.2808 4.83847 21.2948 6.16601 21.2948C7.07286 21.2948 7.55506 21.6939 7.71778 22.6C7.81822 23.1868 7.8336 23.7851 7.76342 24.3762C7.69794 25.0368 7.2713 25.3741 6.53113 25.3981C5.63817 25.412 4.75116 25.3981 3.86415 25.3981Z" fill="var(--fill-0, white)"/>
</g>
</svg>
