<svg preserveAspectRatio="none" width="100%" height="100%" overflow="visible" style="display: block;" viewBox="0 0 31.9746 31.9744" fill="none" xmlns="http://www.w3.org/2000/svg">
<g id="Group 463">
<circle id="Ellipse 75" cx="15.9872" cy="15.9872" r="15.9872" fill="#EBE7E7"/>
<g id="Group">
<path id="Vector" d="M7.43601 24.5385H21.2721" stroke="#5A759D" stroke-linecap="round" stroke-linejoin="round"/>
<path id="Vector_2" d="M14.983 20.1361L11.2095 20.8153L11.8384 16.9915L20.3036 8.55149C20.4205 8.4336 20.5596 8.34002 20.7129 8.27617C20.8662 8.21231 21.0306 8.17943 21.1966 8.17943C21.3627 8.17943 21.5271 8.21231 21.6804 8.27617C21.8336 8.34002 21.9728 8.4336 22.0897 8.55149L23.423 9.88479C23.5409 10.0017 23.6345 10.1408 23.6983 10.2941C23.7622 10.4474 23.7951 10.6118 23.7951 10.7778C23.7951 10.9439 23.7622 11.1083 23.6983 11.2616C23.6345 11.4149 23.5409 11.554 23.423 11.6709L14.983 20.1361Z" stroke="#5A759D" stroke-linecap="round" stroke-linejoin="round"/>
</g>
</g>
</svg>
