<svg preserveAspectRatio="none" width="100%" height="100%" overflow="visible" style="display: block;" viewBox="0 0 21.9287 19.4962" fill="none" xmlns="http://www.w3.org/2000/svg">
<g id="Group">
<g id="Vector">
<path d="M5.11844 7.87342L9.20698 1.33819C9.36543 1.07988 9.58809 0.867019 9.85325 0.720332C10.1184 0.573646 10.417 0.498138 10.7201 0.501163V0.501163C10.9587 0.492549 11.1967 0.531863 11.4199 0.61678C11.6431 0.701698 11.847 0.830496 12.0195 0.995563C12.1921 1.16063 12.3298 1.35862 12.4246 1.57782C12.5193 1.79702 12.5692 2.033 12.5712 2.27179V6.95591H19.6376C19.8987 6.96438 20.1551 7.02802 20.3898 7.14265C20.6246 7.25728 20.8324 7.4203 20.9997 7.621C21.1669 7.82169 21.2898 8.05552 21.3602 8.3071C21.4306 8.55867 21.447 8.82231 21.4082 9.08067L20.1205 17.3865C20.0656 17.8304 19.8504 18.239 19.5155 18.5354C19.1805 18.8318 18.7488 18.9957 18.3016 18.9962H7.74219C7.23952 18.9982 6.74338 18.8824 6.29349 18.6582L5.13454 18.0787" fill="var(--fill-0, #F92424)"/>
<path d="M5.11844 7.87342L9.20698 1.33819C9.36543 1.07988 9.58809 0.867019 9.85325 0.720332C10.1184 0.573646 10.417 0.498138 10.7201 0.501163V0.501163C10.9587 0.492549 11.1967 0.531863 11.4199 0.61678C11.6431 0.701698 11.847 0.830496 12.0195 0.995563C12.1921 1.16063 12.3298 1.35862 12.4246 1.57782C12.5193 1.79702 12.5692 2.033 12.5712 2.27179V6.95591H19.6376C19.8987 6.96438 20.1551 7.02802 20.3898 7.14265C20.6246 7.25728 20.8324 7.4203 20.9997 7.621C21.1669 7.82169 21.2898 8.05552 21.3602 8.3071C21.4306 8.55867 21.447 8.82231 21.4082 9.08067L20.1205 17.3865C20.0656 17.8304 19.8504 18.239 19.5155 18.5354C19.1805 18.8318 18.7488 18.9957 18.3016 18.9962H7.74219C7.23952 18.9982 6.74338 18.8824 6.29349 18.6582L5.13454 18.0787" stroke="var(--stroke-0, white)" stroke-linecap="round" stroke-linejoin="round"/>
</g>
<path id="Vector_2" d="M5.11844 7.87346V18.0304" stroke="var(--stroke-0, white)" stroke-linecap="round" stroke-linejoin="round"/>
<path id="Vector_3" d="M1.30483 7.87346H5.11973V18.0304H1.30483C1.09138 18.0304 0.886665 17.9456 0.73573 17.7947C0.584794 17.6438 0.5 17.4391 0.5 17.2256V8.67829C0.5 8.46483 0.584794 8.26012 0.73573 8.10918C0.886665 7.95825 1.09138 7.87346 1.30483 7.87346V7.87346Z" fill="var(--fill-0, #F92424)" stroke="var(--stroke-0, white)" stroke-linecap="round" stroke-linejoin="round"/>
</g>
</svg>
