<svg preserveAspectRatio="none" width="100%" height="100%" overflow="visible" style="display: block;" viewBox="0 0 14 20.2222" fill="none" xmlns="http://www.w3.org/2000/svg">
<g id="Group">
<path id="Vector" d="M14 7C14 10.8733 7 20.2222 7 20.2222C7 20.2222 0 10.8733 0 7C2.76642e-08 5.14348 0.737498 3.36301 2.05025 2.05025C3.36301 0.737498 5.14348 0 7 0C8.85652 0 10.637 0.737498 11.9497 2.05025C13.2625 3.36301 14 5.14348 14 7V7Z" fill="var(--fill-0, white)"/>
<path id="Vector_2" d="M6.99972 9.33332C8.28838 9.33332 9.33305 8.28865 9.33305 6.99998C9.33305 5.71132 8.28838 4.66665 6.99972 4.66665C5.71105 4.66665 4.66638 5.71132 4.66638 6.99998C4.66638 8.28865 5.71105 9.33332 6.99972 9.33332Z" fill="var(--fill-0, #F4DB87)"/>
</g>
</svg>
