<svg preserveAspectRatio="none" width="100%" height="100%" overflow="visible" style="display: block;" viewBox="0 0 23 21.3838" fill="none" xmlns="http://www.w3.org/2000/svg">
<g id="Group">
<path id="Vector" d="M14.7308 4.23062C14.7308 3.59166 14.5414 2.96706 14.1864 2.43578C13.8314 1.90451 13.3268 1.49044 12.7365 1.24592C12.1462 1.0014 11.4966 0.937423 10.8699 1.06208C10.2432 1.18673 9.66758 1.49442 9.21577 1.94623C8.76395 2.39804 8.45626 2.97368 8.33161 3.60036C8.20695 4.22704 8.27093 4.87661 8.51545 5.46692C8.75997 6.05724 9.17405 6.5618 9.70533 6.91678C10.2366 7.27176 10.8612 7.46124 11.5002 7.46124V9.07655" stroke="var(--stroke-0, #F92424)" stroke-width="2" stroke-linecap="round" stroke-linejoin="round"/>
<path id="Vector_2" d="M11.5 9.07663L1.80806 16.5071C1.55067 16.711 1.34387 16.9716 1.20377 17.2686C1.06368 17.5656 0.994076 17.891 1.00039 18.2193C1.00039 18.7933 1.22844 19.3439 1.63437 19.7498C2.0403 20.1557 2.59086 20.3838 3.16493 20.3838H19.8351C20.4091 20.3838 20.9597 20.1557 21.3656 19.7498C21.7716 19.3439 21.9996 18.7933 21.9996 18.2193C22.0059 17.891 21.9363 17.5656 21.7962 17.2686C21.6561 16.9716 21.4493 16.711 21.1919 16.5071L11.5 9.07663Z" stroke="var(--stroke-0, #F92424)" stroke-width="2" stroke-linecap="round" stroke-linejoin="round"/>
</g>
</svg>
