<svg preserveAspectRatio="none" width="100%" height="100%" overflow="visible" style="display: block;" viewBox="0 0 31.5736 30.5851" fill="none" xmlns="http://www.w3.org/2000/svg">
<g id="J7To3o">
<path id="Vector" d="M4.73695 19.0608C5.05771 18.7 5.36421 18.3391 5.69923 17.9891C7.00603 16.654 8.31699 15.3238 9.63211 13.9983C10.8065 12.8112 12.036 12.8274 13.164 14.0615C13.369 14.2852 13.4563 14.1553 13.606 14.0362C14.6752 13.1882 15.903 13.2766 16.7477 14.2761C16.9976 14.5581 17.165 14.9049 17.2311 15.2777C17.2972 15.6506 17.2594 16.0347 17.1219 16.387C17.0452 16.6089 17.0524 16.7478 17.2644 16.8922C18.453 17.7564 18.5796 19.261 17.5424 20.3562C17.2733 20.6376 17.2573 20.7639 17.5674 21.0273C18.5778 21.8825 18.6134 23.3006 17.644 24.3019C16.0972 25.9004 14.5219 27.4736 12.9591 29.0576C12.6544 29.368 12.3514 29.6819 12.0432 29.9886C11.6547 30.3711 11.2163 30.4126 10.8902 30.104C10.5641 29.7955 10.5712 29.3102 10.9686 28.9043C12.734 27.1073 14.5041 25.3128 16.279 23.5207C16.415 23.3927 16.5413 23.2546 16.6568 23.1075C16.876 22.8062 16.8956 22.4887 16.614 22.2181C16.5584 22.1564 16.4907 22.1071 16.4152 22.0733C16.3397 22.0396 16.2581 22.0222 16.1756 22.0222C16.0931 22.0222 16.0115 22.0396 15.936 22.0733C15.8606 22.1071 15.7929 22.1564 15.7373 22.2181C15.2597 22.6619 14.8035 23.131 14.3437 23.5946C13.5561 24.3921 12.7756 25.1967 11.9861 25.9906C11.5549 26.4236 11.0951 26.4596 10.7655 26.106C10.4358 25.7524 10.4964 25.323 10.9045 24.9099C12.6865 23.1057 14.4685 21.3015 16.2505 19.4974L16.4144 19.3314C16.7601 18.9706 16.8029 18.5322 16.5213 18.2489C16.2398 17.9657 15.8549 18.009 15.4913 18.3644C14.9122 18.9273 14.3544 19.5154 13.7877 20.091C12.8468 21.0436 11.9095 21.998 10.9633 22.9433C10.5819 23.3258 10.1168 23.3673 9.80675 23.0732C9.4646 22.7485 9.46995 22.2776 9.8709 21.8663C10.9401 20.7657 12.0396 19.6832 13.1231 18.5917C13.9 17.8087 14.6805 17.0311 15.4397 16.2337C15.8299 15.8259 15.837 15.4723 15.5163 15.1692C15.2276 14.8968 14.8819 14.9347 14.5023 15.3153C12.592 17.2398 10.6847 19.1642 8.78031 21.0887C8.70369 21.1662 8.63062 21.2492 8.54865 21.3196C8.19225 21.6317 7.7521 21.6371 7.46341 21.3394C7.39179 21.2663 7.3356 21.1792 7.29826 21.0834C7.26092 20.9876 7.24322 20.8851 7.24622 20.7822C7.24922 20.6793 7.27286 20.578 7.31571 20.4846C7.35857 20.3912 7.41973 20.3076 7.49549 20.2389C8.03009 19.6742 8.5932 19.1348 9.1385 18.5809C10.0224 17.6824 10.9033 16.7803 11.7812 15.8746C12.102 15.5427 12.1269 15.1421 11.8667 14.8769C11.6066 14.6117 11.1646 14.6298 10.8367 14.9599C8.87654 16.9373 6.91634 18.9171 4.95613 20.8992C4.77793 21.0887 4.58904 21.2817 4.39302 21.4585C4.14889 21.6786 3.85842 21.7977 3.54122 21.6516C3.39732 21.5892 3.27504 21.4848 3.18997 21.3518C3.10491 21.2188 3.06093 21.0631 3.06365 20.9046C3.04939 20.5131 3.05474 20.1216 3.05295 19.7301C3.05295 18.828 3.05295 17.9151 3.05295 17.0058C3.05295 16.2842 2.79634 15.9342 2.30095 15.9233C1.76635 15.9233 1.51865 16.2734 1.51687 17.0221C1.51687 19.0572 1.51687 21.0923 1.51687 23.1274C1.51687 23.3168 1.51687 23.5044 1.50796 23.6921C1.50821 23.7828 1.49056 23.8728 1.45603 23.9565C1.42151 24.0403 1.37081 24.1163 1.30691 24.18C1.24301 24.2437 1.16719 24.2938 1.08391 24.3274C1.00062 24.3611 0.911537 24.3775 0.821885 24.3758C0.634848 24.3972 0.44706 24.3428 0.299499 24.2245C0.151937 24.1062 0.056581 23.9336 0.034239 23.7444C0.0149664 23.6366 0.00542303 23.5273 0.00572693 23.4178C0.00572693 21.1951 -0.0067471 18.9706 0.00572693 16.7424C0.018201 15.5355 0.75595 14.6424 1.85188 14.4097C2.17933 14.3437 2.51711 14.3519 2.84109 14.4335C3.16507 14.5151 3.46725 14.6681 3.72602 14.8817C3.9848 15.0953 4.19379 15.364 4.33805 15.6689C4.4823 15.9737 4.55828 16.307 4.56053 16.645C4.57835 17.4082 4.56053 18.1731 4.56053 18.9381L4.73695 19.0608Z" fill="white"/>
<path id="Vector_2" d="M29.2648 19.5715C29.2648 22.1382 29.2648 24.7055 29.2648 27.2734C29.2648 29.2219 27.923 30.5804 25.993 30.584C22.5003 30.584 19.0064 30.584 15.5113 30.584C15.327 30.5901 15.1428 30.5695 14.9642 30.5227C14.8043 30.4799 14.6652 30.38 14.5725 30.2413C14.4798 30.1027 14.4398 29.9347 14.4599 29.7686C14.4591 29.6014 14.5175 29.4395 14.6243 29.3121C14.7312 29.1847 14.8796 29.1002 15.0426 29.074C15.2258 29.0441 15.4117 29.035 15.5968 29.0469C19.0129 29.0469 22.4308 29.0216 25.8469 29.0613C26.8395 29.0722 27.7751 28.4407 27.7644 27.1183C27.7252 22.0161 27.7501 16.9121 27.7519 11.81C27.7519 10.9909 28.0085 10.6138 28.5484 10.6318C29.0884 10.6499 29.2612 10.9927 29.2612 11.8244L29.2648 19.5715Z" fill="white"/>
<path id="Vector_3" d="M12.5798 4.00902C10.0577 4.00902 7.53673 4.00902 5.01698 4.00902C3.67869 4.00902 3.06925 4.63507 3.07103 5.9936V11.4891C3.07103 11.5991 3.07103 11.7092 3.07103 11.8174C3.05143 12.494 2.79304 12.8314 2.29586 12.8332C1.79868 12.835 1.55633 12.503 1.55455 11.8102V5.94128C1.55455 3.81057 2.85006 2.48812 4.97421 2.48812C8.67187 2.47729 12.3677 2.48812 16.0636 2.48812H19.9609C20.0999 2.48812 20.2406 2.48812 20.3779 2.48812C20.9588 2.53863 21.2849 2.84895 21.2546 3.30901C21.2243 3.76907 20.8982 4.01263 20.3351 4.01263C17.7464 4.01263 15.1613 4.01143 12.5798 4.00902Z" fill="white"/>
<path id="Vector_4" d="M25.8338 0C26.6963 2.9065 28.6137 4.69082 31.5736 5.42691C31.1032 5.78775 30.6826 5.88878 30.2941 6.05476C28.2858 6.90993 27.0865 8.46873 26.4218 10.5219C26.3434 10.7654 26.3292 11.184 26.1064 11.193C25.8569 11.2038 25.8373 10.7871 25.75 10.5525C24.9018 8.20712 23.2392 6.78545 20.9119 6.09084C20.7909 6.05671 20.6719 6.01575 20.5555 5.96816C20.4993 5.94764 20.4528 5.9064 20.4254 5.8527C20.3933 5.75166 20.4931 5.7264 20.559 5.69754C20.7372 5.61815 20.9279 5.53697 21.1186 5.47382C23.2214 4.77742 24.5757 3.3413 25.2528 1.23765C25.3829 0.840739 25.5451 0.454649 25.6912 0.063146L25.8338 0ZM27.6585 5.6398C27.6193 5.49186 27.5089 5.45939 27.4251 5.38903C26.9195 5.02766 26.4697 4.59232 26.0904 4.09725C25.9122 3.8591 25.7999 3.86992 25.6538 4.09725C25.2986 4.62947 24.8612 5.10037 24.3583 5.49186C24.1391 5.67228 24.1409 5.77872 24.3725 5.93208C24.8934 6.27097 25.3528 6.69819 25.7304 7.19499C25.9175 7.44757 26.0547 7.42592 26.2187 7.17875C26.5826 6.65317 27.0189 6.18294 27.5142 5.78233C27.5694 5.73542 27.6158 5.6831 27.6585 5.6398Z" fill="white"/>
</g>
</svg>
