<svg preserveAspectRatio="none" width="100%" height="100%" overflow="visible" style="display: block;" viewBox="0 0 29.2981 26.0083" fill="none" xmlns="http://www.w3.org/2000/svg">
<g id="Group">
<g id="Vector">
<path d="M6.7453 10.4694L12.2733 1.6333C12.4876 1.28405 12.7886 0.996238 13.1471 0.797907C13.5057 0.599575 13.9094 0.497482 14.3191 0.501572V0.501572C14.6418 0.489926 14.9635 0.543081 15.2653 0.657896C15.5671 0.772711 15.8428 0.946857 16.0761 1.17004C16.3095 1.39322 16.4957 1.66092 16.6238 1.9573C16.7519 2.25368 16.8193 2.57273 16.822 2.8956V9.2289H26.3763C26.7294 9.24035 27.076 9.3264 27.3934 9.48139C27.7108 9.63637 27.9918 9.85679 28.218 10.1282C28.4441 10.3995 28.6102 10.7157 28.7054 11.0558C28.8006 11.396 28.8228 11.7524 28.7704 12.1017L27.0293 23.3319C26.955 23.9321 26.6641 24.4845 26.2112 24.8852C25.7583 25.286 25.1747 25.5076 24.5699 25.5083H10.2928C9.61317 25.511 8.94235 25.3544 8.33407 25.0513L6.76706 24.2678" fill="white"/>
<path d="M6.7453 10.4694L12.2733 1.6333C12.4876 1.28405 12.7886 0.996238 13.1471 0.797907C13.5057 0.599575 13.9094 0.497482 14.3191 0.501572V0.501572C14.6418 0.489926 14.9635 0.543081 15.2653 0.657896C15.5671 0.772711 15.8428 0.946857 16.0761 1.17004C16.3095 1.39322 16.4957 1.66092 16.6238 1.9573C16.7519 2.25368 16.8193 2.57273 16.822 2.8956V9.2289H26.3763C26.7294 9.24035 27.076 9.3264 27.3934 9.48139C27.7108 9.63637 27.9918 9.85679 28.218 10.1282C28.4441 10.3995 28.6102 10.7157 28.7054 11.0558C28.8006 11.396 28.8228 11.7524 28.7704 12.1017L27.0293 23.3319C26.955 23.9321 26.6641 24.4845 26.2112 24.8852C25.7583 25.286 25.1747 25.5076 24.5699 25.5083H10.2928C9.61317 25.511 8.94235 25.3544 8.33407 25.0513L6.76706 24.2678" stroke="#5A759D" stroke-linecap="round" stroke-linejoin="round"/>
</g>
<path id="Vector_2" d="M6.7453 10.4695V24.2025" stroke="#5A759D" stroke-linecap="round" stroke-linejoin="round"/>
<path id="Vector_3" d="M1.5882 10.4695H6.74624V24.2025H1.5882C1.29959 24.2025 1.0228 24.0879 0.818725 23.8838C0.614649 23.6797 0.5 23.4029 0.5 23.1143V11.5577C0.5 11.2691 0.614649 10.9923 0.818725 10.7882C1.0228 10.5841 1.29959 10.4695 1.5882 10.4695V10.4695Z" fill="white" stroke="#5A759D" stroke-linecap="round" stroke-linejoin="round"/>
</g>
</svg>
