<svg preserveAspectRatio="none" width="100%" height="100%" overflow="visible" style="display: block;" viewBox="0 0 22.0002 18.5923" fill="none" xmlns="http://www.w3.org/2000/svg">
<g id="CM268G">
<path id="Vector" d="M13.3251 4.02467C14.1494 4.02467 14.9721 4.02467 15.7948 4.02467C16.0735 4.01055 16.3508 4.07324 16.596 4.20582C16.8411 4.3384 17.0446 4.53571 17.184 4.77596C17.6717 5.55484 18.1734 6.32606 18.658 7.10495C18.6987 7.18169 18.7616 7.24451 18.8387 7.28525C18.9158 7.32599 19.0034 7.34276 19.0902 7.3334C19.7447 7.32266 20.3991 7.3334 21.0536 7.3334C21.5969 7.3334 21.989 7.64005 21.9998 8.06935C22.0026 8.19445 21.9796 8.3188 21.9324 8.4348C21.8852 8.5508 21.8146 8.656 21.725 8.74398C21.6354 8.83196 21.5287 8.90086 21.4114 8.94647C21.2941 8.99207 21.1687 9.01343 21.0428 9.00923C20.2818 9.01996 19.5193 9.00923 18.7568 9.00923C17.5621 9.02456 17.5359 8.97243 16.9385 8.05709C16.7178 7.71824 16.4847 7.38553 16.2594 7.04668C16.1606 6.89336 16.0711 6.88263 15.9723 7.04668C15.4197 7.98298 14.862 8.91876 14.2991 9.85404C14.2142 9.9951 14.3315 10.0319 14.4025 10.081C14.7992 10.3569 15.2021 10.6253 15.6034 10.8966C16.0047 11.168 16.3906 11.4302 16.7873 11.6955C17.0114 11.8388 17.1896 12.0427 17.301 12.2833C17.4124 12.5238 17.4524 12.7909 17.4163 13.0532C17.3801 13.3155 17.2693 13.5621 17.0969 13.7641C16.9245 13.966 16.6977 14.1148 16.4431 14.1931C15.1372 14.6071 13.8304 15.0159 12.5225 15.4197C12.4269 15.4562 12.3249 15.4734 12.2226 15.4704C12.1202 15.4674 12.0194 15.4441 11.9262 15.402C11.833 15.3599 11.7491 15.2998 11.6795 15.2252C11.6099 15.1506 11.5559 15.0629 11.5207 14.9674C11.3664 14.558 11.5362 14.1732 11.973 13.9738C12.7833 13.6043 13.5983 13.2425 14.4118 12.8745C14.4766 12.8454 14.5831 12.8377 14.58 12.7457C14.58 12.6767 14.4843 12.6553 14.4257 12.6215C13.5443 12.1355 12.666 11.6433 11.78 11.1665C11.5322 11.0378 11.3122 10.8619 11.1328 10.6488C10.9534 10.4356 10.818 10.1894 10.7345 9.9243C10.6509 9.65916 10.6208 9.38027 10.6458 9.10355C10.6708 8.82683 10.7504 8.55772 10.8802 8.3116C11.2877 7.55878 11.7538 6.83663 12.1937 6.09914C12.2246 6.04701 12.2601 5.99642 12.2863 5.94582C12.3867 5.74803 12.3481 5.67597 12.132 5.6729C11.7245 5.6729 11.3154 5.6729 10.908 5.6729C10.7536 5.6729 10.678 5.77256 10.5992 5.87682C10.0076 6.65877 9.41639 7.44123 8.82573 8.22421C8.74009 8.34811 8.62463 8.44879 8.48984 8.51707C8.35506 8.58535 8.20522 8.61908 8.05397 8.61518C7.9457 8.61735 7.83841 8.59451 7.74055 8.54846C7.64269 8.50242 7.55693 8.43442 7.49003 8.34984C7.42314 8.26525 7.37694 8.16639 7.35507 8.06104C7.3332 7.9557 7.33626 7.84674 7.36401 7.74277C7.39725 7.60044 7.46037 7.46669 7.54923 7.35026C8.23919 6.43032 8.92143 5.51038 9.62065 4.59044C9.74793 4.41598 9.91568 4.27459 10.1097 4.17823C10.3037 4.08188 10.5182 4.03341 10.7351 4.03694L13.3251 4.02467Z" fill="#F92424"/>
<path id="Vector_2" d="M5.39693 17.795C5.39815 17.6464 5.44559 17.5018 5.53276 17.381C6.48048 15.8979 7.4277 14.4157 8.3744 12.9346C8.90949 12.0954 9.44612 11.2573 9.9843 10.4201C10.0399 10.3358 10.0692 10.2039 10.2035 10.2131C10.3378 10.2223 10.3439 10.3434 10.3872 10.4278C10.6464 10.9548 11.0697 11.3849 11.5942 11.6544C11.8226 11.774 11.8304 11.8429 11.676 12.0392C10.5029 13.5316 9.33087 15.0234 8.15985 16.5147C7.69679 17.1112 7.23373 17.7106 6.75678 18.3055C6.65495 18.4316 6.51564 18.5224 6.35875 18.5651C6.20185 18.6078 6.03539 18.6001 5.88314 18.5432C5.73165 18.4873 5.60244 18.3842 5.51481 18.2494C5.42717 18.1145 5.38582 17.9551 5.39693 17.795Z" fill="#F92424"/>
<path id="Vector_3" d="M18.5411 1.7663C18.5407 1.99996 18.4938 2.23124 18.4031 2.44683C18.3124 2.66242 18.1796 2.85806 18.0125 3.02251C17.8454 3.18695 17.6472 3.31694 17.4293 3.40501C17.2114 3.49307 16.9781 3.53747 16.7429 3.53565C16.2765 3.52345 15.8329 3.33272 15.5047 3.00329C15.1765 2.67387 14.9891 2.23123 14.9817 1.76783C14.9817 1.29897 15.1692 0.849321 15.503 0.51779C15.8368 0.186259 16.2894 6.88434e-06 16.7614 6.88434e-06C17.2334 6.88434e-06 17.6861 0.186259 18.0199 0.51779C18.3536 0.849321 18.5411 1.29897 18.5411 1.76783V1.7663Z" fill="#F92424"/>
<path id="Vector_4" d="M5.85053 10.9211H3.91186C3.75735 10.9309 3.60275 10.9035 3.46115 10.8414C3.36352 10.7893 3.28462 10.7083 3.23539 10.6097C3.18617 10.5111 3.16904 10.3997 3.1864 10.2909C3.19943 10.1834 3.24803 10.0832 3.32457 10.0061C3.40111 9.92893 3.50127 9.87921 3.60933 9.8647C3.73077 9.84499 3.85364 9.83524 3.97669 9.83557C5.21151 9.83557 6.45045 9.83557 7.69351 9.83557C7.82448 9.83453 7.95539 9.84118 8.08557 9.8555C8.21417 9.86894 8.33345 9.92839 8.42116 10.0228C8.50887 10.1172 8.55901 10.24 8.56223 10.3684C8.56544 10.4968 8.52151 10.622 8.43862 10.7206C8.35574 10.8192 8.23958 10.8845 8.11181 10.9042C8.00566 10.9211 7.89824 10.9288 7.79075 10.9272L5.85053 10.9211Z" fill="#F92424"/>
<path id="Vector_5" d="M4.28358 11.7326C4.97663 11.7326 5.67276 11.7326 6.36118 11.7326C6.73625 11.7326 6.95698 11.9196 6.97859 12.2401C7.0002 12.5605 6.77176 12.7629 6.40131 12.7966C6.24696 12.8104 6.07871 12.7966 5.91664 12.7966C4.74047 12.7966 3.56378 12.7966 2.38658 12.7966C2.27928 12.7995 2.17192 12.7939 2.06553 12.7798C1.92991 12.7658 1.80481 12.7009 1.71584 12.5983C1.62688 12.4956 1.58079 12.3631 1.58703 12.2278C1.58832 12.1585 1.60382 12.0901 1.63258 12.0269C1.66135 11.9637 1.70278 11.907 1.75435 11.8602C1.80591 11.8134 1.86653 11.7776 1.93251 11.7548C1.99848 11.7321 2.06843 11.723 2.13807 11.728C2.85273 11.728 3.56893 11.728 4.28358 11.728V11.7326Z" fill="#F92424"/>
<path id="Vector_6" d="M2.70772 14.8399C2.0085 14.8399 1.30774 14.8399 0.608518 14.8399C0.245789 14.8399 0.0111721 14.6345 0.000367364 14.3217C-0.0104374 14.0089 0.218005 13.8035 0.5653 13.7759C0.756698 13.7621 0.949639 13.7759 1.14258 13.7759H4.62479C4.72443 13.7735 4.8241 13.7797 4.92269 13.7943C4.99263 13.7998 5.06068 13.8195 5.12256 13.8524C5.18444 13.8852 5.23882 13.9304 5.2823 13.9851C5.32578 14.0398 5.35741 14.1029 5.37521 14.1703C5.39301 14.2377 5.3966 14.308 5.38575 14.3769C5.38203 14.4417 5.36536 14.5051 5.33671 14.5635C5.30805 14.6219 5.26799 14.674 5.21885 14.7168C5.16972 14.7596 5.11249 14.7923 5.05051 14.8129C4.98853 14.8335 4.92304 14.8416 4.85786 14.8369C4.1432 14.8369 3.42855 14.8369 2.7139 14.8369L2.70772 14.8399Z" fill="#F92424"/>
</g>
</svg>
